<svg xmlns="http://www.w3.org/2000/svg" xmlns:xlink="http://www.w3.org/1999/xlink" width="1080" zoomAndPan="magnify" viewBox="0 0 810 1012.49997" height="1350" preserveAspectRatio="xMidYMid meet" version="1.0"><defs><g/><clipPath id="15dc95716a"><path d="M 195.925781 234.957031 L 621.457031 234.957031 L 621.457031 607.300781 L 195.925781 607.300781 Z M 195.925781 234.957031 " clip-rule="nonzero"/></clipPath><clipPath id="5236f0df41"><path d="M 408.691406 234.957031 L 621.457031 607.300781 L 195.925781 607.300781 Z M 408.691406 234.957031 " clip-rule="nonzero"/></clipPath><clipPath id="3c2af69475"><path d="M 148.269531 632.246094 L 661.730469 632.246094 L 661.730469 699.128906 L 148.269531 699.128906 Z M 148.269531 632.246094 " clip-rule="nonzero"/></clipPath><clipPath id="874ba3f7cc"><path d="M 427 388 L 707.707031 388 L 707.707031 529 L 427 529 Z M 427 388 " clip-rule="nonzero"/></clipPath><clipPath id="03e3ff6ab1"><path d="M 109.503906 390 L 392 390 L 392 529 L 109.503906 529 Z M 109.503906 390 " clip-rule="nonzero"/></clipPath><clipPath id="481129bd87"><path d="M 400 306.441406 L 418 306.441406 L 418 401 L 400 401 Z M 400 306.441406 " clip-rule="nonzero"/></clipPath><clipPath id="9bf25b7182"><path d="M 411 519 L 418 519 L 418 535.828125 L 411 535.828125 Z M 411 519 " clip-rule="nonzero"/></clipPath><clipPath id="3ddc42fac5"><path d="M 400 519 L 407 519 L 407 535.828125 L 400 535.828125 Z M 400 519 " clip-rule="nonzero"/></clipPath></defs><g clip-path="url(#15dc95716a)"><g clip-path="url(#5236f0df41)"><path stroke-linecap="butt" transform="matrix(0.74963, 0, 0, 0.74963, 195.925182, 234.958329)" fill="none" stroke-linejoin="miter" d="M 283.828412 -0.00173097 L 567.656024 496.701802 L 0.000798778 496.701802 Z M 283.828412 -0.00173097 " stroke="#07bacf" stroke-width="44" stroke-opacity="1" stroke-miterlimit="4"/></g></g><g clip-path="url(#3c2af69475)"><path fill="#ffffff" d="M 148.269531 632.246094 L 661.644531 632.246094 L 661.644531 699.128906 L 148.269531 699.128906 Z M 148.269531 632.246094 " fill-opacity="1" fill-rule="nonzero"/></g><g clip-path="url(#874ba3f7cc)"><path fill="#8b3dff" d="M 707.484375 389.148438 C 707.476562 388.867188 707.394531 388.578125 707.347656 388.300781 C 704.902344 412.835938 693.726562 426.332031 669.042969 430.578125 C 642.128906 436.363281 615.179688 442.035156 588.144531 447.238281 C 552.949219 453.996094 517.660156 460.320312 482.160156 465.171875 C 472.339844 466.46875 462.507812 467.644531 452.699219 468.953125 C 448.761719 469.460938 444.824219 470.007812 440.875 470.476562 C 439.957031 470.585938 439.558594 470.996094 439.320312 471.84375 C 438.542969 474.664062 437.707031 477.464844 436.886719 480.265625 C 436.707031 480.875 436.847656 481.074219 437.4375 480.953125 C 443.316406 479.820312 449.148438 478.433594 455.050781 477.4375 C 455.230469 477.445312 455.3125 477.816406 455.25 477.925781 C 447.078125 484.753906 440.746094 493.335938 434.285156 501.730469 C 432.382812 504.261719 429.789062 506.058594 427.328125 507.992188 C 428.054688 508.351562 428.632812 507.8125 429.269531 507.644531 C 429.738281 507.523438 430.179688 507.285156 430.628906 507.105469 C 439.179688 503.535156 447.785156 500.066406 456.738281 497.59375 C 465.132812 494.890625 474.074219 493.515625 481.917969 489.359375 C 482.964844 488.78125 483.921875 488.125 484.652344 487.136719 C 485.648438 485.800781 487.132812 485.140625 488.589844 484.453125 C 489.078125 484.226562 489.386719 484.464844 489.375 485.011719 C 489.335938 488.5 489.296875 491.980469 489.257812 495.46875 C 490.085938 499.65625 482.546875 497.117188 479.46875 507.074219 C 476.308594 516.605469 482.675781 529.15625 493.644531 528.269531 C 508.609375 528.589844 512.882812 504.730469 500.195312 498.371094 C 499.214844 497.914062 498.96875 497.207031 498.976562 496.199219 C 499.015625 492.988281 498.988281 489.777344 498.988281 486.566406 C 498.679688 484.144531 500.164062 484.316406 501.996094 483.828125 C 515.644531 480.375 529.265625 476.828125 542.863281 473.1875 C 544.90625 472.28125 544.328125 476.589844 544.855469 477.785156 C 545.175781 478.453125 546.074219 485.460938 546.917969 484.316406 C 548.265625 482.699219 551.386719 481.652344 550.828125 479.160156 C 550.328125 476.917969 549.949219 474.644531 549.53125 472.390625 C 549.382812 471.582031 549.453125 471.445312 550.289062 471.234375 C 566.789062 467.128906 583.207031 462.703125 599.675781 458.464844 C 601.234375 458.066406 602.777344 457.65625 604.332031 457.269531 C 604.902344 457.128906 605.082031 457.246094 605.191406 457.828125 C 605.648438 460.925781 605.988281 464.046875 606.4375 467.15625 C 607.335938 474.265625 607.523438 470.9375 610.59375 467.097656 C 611.300781 464.246094 610.105469 461.136719 610.09375 458.203125 C 609.894531 455.683594 609.6875 455.921875 612.160156 455.273438 C 637.09375 448.742188 662.214844 442.800781 686.980469 435.683594 C 707.457031 428.476562 708.59375 407.222656 707.484375 389.148438 Z M 707.484375 389.148438 " fill-opacity="1" fill-rule="nonzero"/></g><g clip-path="url(#03e3ff6ab1)"><path fill="#8b3dff" d="M 390.53125 507.734375 C 383.5625 502.898438 379.226562 495.46875 373.8125 489.128906 C 370.382812 485.003906 366.535156 481.214844 362.246094 477.964844 C 362.109375 477.84375 362.078125 477.59375 361.996094 477.414062 C 367.960938 477.953125 373.980469 479.917969 379.960938 480.914062 C 380.5625 481.035156 380.742188 480.835938 380.609375 480.277344 C 380.210938 478.582031 379.785156 476.898438 379.414062 475.191406 C 379.15625 474.035156 378.976562 472.859375 378.765625 471.695312 C 378.625 470.496094 377.601562 470.335938 376.574219 470.238281 C 368.039062 469.371094 359.515625 468.445312 351 467.375 C 329.957031 464.875 309.011719 461.613281 288.09375 458.164062 C 240.183594 450.148438 192.507812 440.730469 145.074219 430.25 C 128.65625 427.371094 114.128906 414.917969 111.609375 398.011719 C 110.980469 395.4375 111.089844 392.546875 110.082031 390.144531 C 107.898438 411.597656 112.882812 432.652344 136.769531 437.757812 C 159.449219 443.839844 182.179688 449.691406 204.941406 455.484375 C 208.152344 456.332031 207.871094 455.664062 207.542969 459.421875 C 207.382812 461.226562 207.195312 463.03125 207.015625 464.835938 C 206.527344 467.636719 208.769531 469.667969 210.335938 471.714844 C 210.445312 471.582031 210.632812 471.453125 210.664062 471.304688 C 211.382812 466.96875 211.980469 462.621094 212.558594 458.273438 C 212.65625 457.585938 212.90625 457.4375 213.5625 457.605469 C 215.996094 458.234375 218.410156 458.894531 220.84375 459.519531 C 236.34375 463.578125 251.886719 467.507812 267.390625 471.5625 C 268.265625 471.871094 268.414062 472.0625 268.296875 472.917969 C 267.9375 475.332031 267.527344 477.734375 267.199219 480.15625 C 267.03125 482.160156 270.03125 483.289062 271.238281 484.625 C 271.695312 484.992188 271.964844 484.851562 272.054688 484.285156 C 272.59375 481.054688 273.171875 477.835938 273.667969 474.59375 C 273.867188 473.269531 274.199219 473.21875 275.316406 473.519531 C 280.289062 474.863281 285.242188 476.300781 290.230469 477.605469 C 299.390625 480.019531 308.570312 482.371094 317.742188 484.753906 C 318.363281 484.84375 318.902344 485.222656 319.128906 485.789062 C 319.398438 489.378906 319.210938 493.046875 319.367188 496.65625 C 319.398438 497.625 319.121094 498.164062 318.171875 498.539062 C 311.242188 501.253906 309.171875 509.605469 310.753906 516.277344 C 315.628906 536.585938 342.738281 529.484375 339.199219 509.449219 C 338.410156 504.292969 335.191406 500.054688 330.277344 498.25 C 329.410156 497.960938 329.058594 497.445312 329.078125 496.546875 C 329.117188 494.734375 329.089844 492.917969 329.089844 491.105469 C 329.089844 491.105469 329.097656 491.105469 329.097656 491.105469 C 329.097656 489.148438 329.089844 487.195312 329.109375 485.242188 C 329.117188 484.433594 329.429688 484.253906 330.164062 484.625 C 332.140625 485.910156 335.011719 486.347656 336.148438 488.570312 C 336.726562 489.847656 337.742188 490.675781 339 491.203125 C 344.171875 493.488281 349.714844 494.703125 355.140625 496.246094 C 367.492188 499.199219 379.195312 504.214844 391.097656 508.429688 C 390.910156 508.203125 390.769531 507.890625 390.53125 507.734375 Z M 390.53125 507.734375 " fill-opacity="1" fill-rule="nonzero"/></g><path fill="#8b3dff" d="M 437.066406 459.609375 C 437.105469 459.113281 436.859375 458.894531 436.347656 458.785156 C 426.886719 456.210938 420.71875 455.304688 411.027344 457.824219 C 405.8125 458.984375 400.878906 455.433594 395.59375 456.121094 C 390.691406 456.339844 385.984375 457.804688 381.160156 458.492188 C 380.453125 458.734375 380.589844 459.679688 380.652344 460.277344 C 380.851562 476.667969 394.078125 512.539062 415.511719 503.175781 C 428.671875 495.789062 434.535156 479.878906 436.550781 465.652344 C 436.808594 463.648438 436.898438 461.625 437.066406 459.609375 Z M 437.066406 459.609375 " fill-opacity="1" fill-rule="nonzero"/><path fill="#8b3dff" d="M 380.75 454.046875 C 382.285156 452.105469 382.894531 449.371094 383.671875 447.007812 C 384.121094 445.265625 385.066406 444.246094 386.882812 443.910156 C 392.761719 442.59375 398.796875 441.078125 404.828125 442.671875 C 407.886719 443.691406 411.246094 443.101562 414.328125 442.433594 C 419.710938 441.417969 425.441406 442.273438 430.527344 444.199219 C 434.097656 445.695312 434.613281 449.980469 436.230469 453.082031 C 436.410156 453.351562 436.609375 453.96875 436.996094 453.699219 C 434.265625 399.105469 384.058594 398.347656 380.601562 453.300781 C 380.5625 453.570312 380.601562 453.820312 380.75 454.046875 Z M 380.75 454.046875 " fill-opacity="1" fill-rule="nonzero"/><path fill="#8b3dff" d="M 437.765625 415.925781 C 438.542969 416.980469 438.554688 416.992188 439.839844 416.644531 C 450.238281 413.75 460.722656 411.179688 471.152344 408.40625 C 482.058594 405.535156 492.964844 402.644531 503.851562 399.695312 C 506.914062 399.058594 506.523438 398.96875 506.523438 395.828125 C 506.464844 393.265625 506.78125 393.273438 503.941406 393.644531 C 478.449219 397.390625 452.917969 401.160156 427.507812 405.347656 C 428.363281 406.246094 429.429688 406.894531 430.347656 407.71875 C 433.128906 410.183594 435.570312 412.945312 437.765625 415.925781 Z M 437.765625 415.925781 " fill-opacity="1" fill-rule="nonzero"/><path fill="#8b3dff" d="M 312.820312 399.214844 C 334.53125 405.046875 356.265625 410.832031 378 416.582031 C 379.984375 417.410156 381.546875 413.242188 383.074219 412.066406 C 385.175781 409.554688 387.839844 407.570312 390.378906 405.625 C 365.21875 400.75 339.226562 397.652344 313.765625 393.492188 C 311.285156 392.875 311.722656 394.101562 311.652344 396.097656 C 311.644531 396.097656 311.632812 396.097656 311.613281 396.097656 C 311.703125 397.34375 311.214844 398.925781 312.820312 399.214844 Z M 312.820312 399.214844 " fill-opacity="1" fill-rule="nonzero"/><g clip-path="url(#481129bd87)"><path fill="#8b3dff" d="M 401.707031 400.414062 C 409.34375 397.660156 418.472656 402.097656 417.25 399.65625 C 415.882812 394.71875 413.230469 390.015625 413.03125 384.851562 C 413.121094 372.648438 412.820312 360.445312 412.710938 348.234375 C 412.722656 348.234375 412.742188 348.234375 412.753906 348.234375 C 412.332031 337.285156 412.183594 326.339844 411.90625 315.394531 C 411.546875 312.503906 413.011719 306.898438 408.933594 306.453125 C 406.609375 306.519531 406.222656 309.511719 406.292969 311.417969 C 406.152344 317.617188 406.003906 323.828125 405.875 330.027344 C 405.453125 347.324219 405.265625 364.621094 405.226562 381.917969 C 405.324219 385.480469 404.417969 388.796875 403.230469 392.109375 C 402.484375 394.648438 401.726562 397.183594 401 399.726562 C 400.796875 400.433594 401 400.621094 401.707031 400.414062 Z M 401.707031 400.414062 " fill-opacity="1" fill-rule="nonzero"/></g><path fill="#8b3dff" d="M 414.148438 445.015625 C 400.359375 447.816406 402.84375 439.113281 400.828125 452.972656 C 400.738281 454.425781 406.929688 455.375 408.714844 455.492188 C 410.9375 455.015625 413.660156 454.445312 416.371094 453.859375 C 416.859375 453.75 417.019531 453.371094 416.917969 452.902344 C 416.390625 450.527344 415.871094 448.15625 415.324219 445.78125 C 415.144531 444.976562 414.976562 444.894531 414.148438 445.015625 Z M 414.148438 445.015625 " fill-opacity="1" fill-rule="nonzero"/><g clip-path="url(#9bf25b7182)"><path fill="#8b3dff" d="M 417.269531 527.125 C 417.21875 527.125 417.167969 527.125 417.128906 527.125 C 416.890625 523.363281 418.585938 517.363281 412.464844 519.617188 C 411.386719 520.066406 411.238281 521.0625 411.265625 522.078125 C 411.375 525.765625 411.464844 529.464844 411.644531 533.15625 C 411.734375 535.078125 412.78125 535.875 414.695312 535.6875 C 418.675781 535.488281 416.878906 529.796875 417.269531 527.125 Z M 417.269531 527.125 " fill-opacity="1" fill-rule="nonzero"/></g><g clip-path="url(#3ddc42fac5)"><path fill="#8b3dff" d="M 406.140625 527.660156 C 406.121094 527.660156 406.113281 527.660156 406.09375 527.660156 C 406.09375 525.648438 406.121094 523.632812 406.082031 521.609375 C 406.050781 520.3125 405.503906 519.707031 404.277344 519.4375 C 402.511719 518.96875 400.449219 519.816406 400.640625 521.859375 C 400.878906 525.878906 400.539062 529.945312 401.066406 533.933594 C 401.257812 536.015625 404.597656 536.453125 405.664062 534.847656 C 406.609375 532.636719 405.972656 530.015625 406.140625 527.660156 Z M 406.140625 527.660156 " fill-opacity="1" fill-rule="nonzero"/></g><path fill="#8b3dff" d="M 391.089844 454.039062 C 398.386719 453.019531 397.828125 455.722656 398.714844 448.097656 C 398.824219 446.890625 399.601562 445.761719 399.132812 444.488281 C 397.757812 444.785156 394.976562 443.949219 394.269531 445.355469 C 393.183594 448.066406 392.09375 450.769531 391.007812 453.480469 C 390.898438 453.777344 390.9375 454.019531 391.089844 454.039062 Z M 391.089844 454.039062 " fill-opacity="1" fill-rule="nonzero"/><path fill="#8b3dff" d="M 421.425781 444.625 C 420.339844 444.675781 417.617188 443.332031 417.996094 445.382812 C 418.503906 448.105469 418.984375 450.835938 419.691406 453.507812 C 420.707031 453.597656 421.734375 453.699219 422.75 453.789062 C 422.75 453.738281 422.761719 453.6875 422.761719 453.628906 C 423.398438 453.460938 425.902344 454.117188 425.652344 453.0625 C 424.753906 450.65625 423.839844 448.253906 422.949219 445.84375 C 422.671875 445.125 422.183594 444.726562 421.425781 444.625 Z M 421.425781 444.625 " fill-opacity="1" fill-rule="nonzero"/><path fill="#8b3dff" d="M 391.585938 445.175781 C 389.710938 445.542969 387.011719 445.292969 386.054688 447.296875 C 385.554688 449.171875 382.226562 454.457031 383.363281 455.851562 C 385.476562 455.402344 387.730469 455.5625 388.488281 453.191406 C 389.265625 451.335938 390.121094 449.5 390.839844 447.617188 C 391.128906 446.828125 391.835938 446.140625 391.585938 445.175781 Z M 391.585938 445.175781 " fill-opacity="1" fill-rule="nonzero"/><path fill="#8b3dff" d="M 428.066406 452.832031 C 428.375 453.679688 428.960938 454.1875 429.839844 454.445312 C 430.785156 454.515625 434.613281 456.878906 434.535156 455.074219 C 433.539062 452.640625 432.113281 450.367188 430.976562 447.988281 C 430.039062 446.152344 428.425781 445.523438 426.507812 445.394531 C 425.683594 445.34375 425.492188 445.535156 425.761719 446.339844 C 426.5 448.515625 427.296875 450.667969 428.066406 452.832031 Z M 428.066406 452.832031 " fill-opacity="1" fill-rule="nonzero"/><g fill="#07bacf" fill-opacity="1"><g transform="translate(84.404704, 720.2043)"><g><path d="M 31.453125 1.21875 C 26.203125 1.21875 21.648438 0.328125 17.796875 -1.453125 C 13.941406 -3.234375 10.96875 -5.734375 8.875 -8.953125 C 6.78125 -12.179688 5.703125 -15.925781 5.640625 -20.1875 L 13.890625 -20.1875 C 14.015625 -15.988281 15.691406 -12.6875 18.921875 -10.28125 C 22.148438 -7.875 26.328125 -6.671875 31.453125 -6.671875 C 36.085938 -6.671875 39.765625 -7.578125 42.484375 -9.390625 C 45.210938 -11.203125 46.578125 -13.738281 46.578125 -17 C 46.578125 -20.0625 45.257812 -22.515625 42.625 -24.359375 C 40 -26.210938 35.710938 -27.828125 29.765625 -29.203125 C 21.691406 -31.140625 15.773438 -33.625 12.015625 -36.65625 C 8.265625 -39.695312 6.390625 -43.753906 6.390625 -48.828125 C 6.390625 -54.398438 8.5 -58.8125 12.71875 -62.0625 C 16.945312 -65.320312 22.660156 -66.953125 29.859375 -66.953125 C 37.242188 -66.953125 43.082031 -65.101562 47.375 -61.40625 C 51.664062 -57.71875 53.84375 -52.679688 53.90625 -46.296875 L 45.734375 -46.296875 C 45.671875 -50.242188 44.210938 -53.359375 41.359375 -55.640625 C 38.515625 -57.921875 34.679688 -59.0625 29.859375 -59.0625 C 25.160156 -59.0625 21.484375 -58.140625 18.828125 -56.296875 C 16.171875 -54.453125 14.84375 -51.960938 14.84375 -48.828125 C 14.84375 -46.140625 16.078125 -43.867188 18.546875 -42.015625 C 21.015625 -40.171875 25.441406 -38.46875 31.828125 -36.90625 C 40.222656 -34.84375 46.203125 -32.257812 49.765625 -29.15625 C 53.335938 -26.0625 55.125 -22.101562 55.125 -17.28125 C 55.125 -11.582031 52.976562 -7.070312 48.6875 -3.75 C 44.394531 -0.4375 38.648438 1.21875 31.453125 1.21875 Z M 31.453125 1.21875 "/></g></g></g><g fill="#07bacf" fill-opacity="1"><g transform="translate(148.916239, 720.2043)"><g><path d="M 9.578125 0 L 9.578125 -65.734375 L 17.84375 -65.734375 L 17.84375 -37.46875 L 27.234375 -37.46875 C 31.679688 -37.46875 35.03125 -38.265625 37.28125 -39.859375 C 39.53125 -41.453125 41.316406 -44.035156 42.640625 -47.609375 L 49.390625 -65.734375 L 58.125 -65.734375 L 50.046875 -44.328125 C 49.109375 -41.816406 47.96875 -39.640625 46.625 -37.796875 C 45.28125 -35.953125 43.664062 -34.40625 41.78125 -33.15625 L 60.65625 0 L 51.078125 0 L 34.09375 -30.140625 C 32.019531 -29.765625 29.734375 -29.578125 27.234375 -29.578125 L 17.84375 -29.578125 L 17.84375 0 Z M 9.578125 0 "/></g></g></g><g fill="#07bacf" fill-opacity="1"><g transform="translate(216.90217, 720.2043)"><g><path d="M 26.296875 0 L 26.296875 -23.671875 L 1.59375 -65.734375 L 11.171875 -65.734375 L 21.875 -47.328125 L 30.421875 -32.484375 L 49.765625 -65.734375 L 59.0625 -65.734375 L 34.375 -23.671875 L 34.375 0 Z M 26.296875 0 "/></g></g></g><g fill="#07bacf" fill-opacity="1"><g transform="translate(281.319801, 720.2043)"><g><path d="M 9.578125 0 L 9.578125 -65.734375 L 34.65625 -65.734375 C 39.21875 -65.734375 43.1875 -64.867188 46.5625 -63.140625 C 49.945312 -61.421875 52.578125 -58.992188 54.453125 -55.859375 C 56.335938 -52.734375 57.28125 -48.984375 57.28125 -44.609375 C 57.28125 -39.285156 55.898438 -34.882812 53.140625 -31.40625 C 50.390625 -27.9375 46.601562 -25.609375 41.78125 -24.421875 L 58.3125 0 L 48.359375 0 L 32.296875 -23.578125 L 17.84375 -23.578125 L 17.84375 0 Z M 17.84375 -31.453125 L 33.71875 -31.453125 C 38.53125 -31.453125 42.25 -32.59375 44.875 -34.875 C 47.507812 -37.164062 48.828125 -40.410156 48.828125 -44.609375 C 48.828125 -48.796875 47.507812 -52.046875 44.875 -54.359375 C 42.25 -56.679688 38.53125 -57.84375 33.71875 -57.84375 L 17.84375 -57.84375 Z M 17.84375 -31.453125 "/></g></g></g><g fill="#07bacf" fill-opacity="1"><g transform="translate(349.024043, 720.2043)"><g><path d="M 9.578125 0 L 9.578125 -65.734375 L 49.484375 -65.734375 L 49.484375 -58.03125 L 17.84375 -58.03125 L 17.84375 -37.28125 L 47.140625 -37.28125 L 47.140625 -29.671875 L 17.84375 -29.671875 L 17.84375 -7.703125 L 50.515625 -7.703125 L 50.515625 0 Z M 9.578125 0 "/></g></g></g><g fill="#07bacf" fill-opacity="1"><g transform="translate(409.403883, 720.2043)"><g><path d="M 31.453125 1.21875 C 26.203125 1.21875 21.648438 0.328125 17.796875 -1.453125 C 13.941406 -3.234375 10.96875 -5.734375 8.875 -8.953125 C 6.78125 -12.179688 5.703125 -15.925781 5.640625 -20.1875 L 13.890625 -20.1875 C 14.015625 -15.988281 15.691406 -12.6875 18.921875 -10.28125 C 22.148438 -7.875 26.328125 -6.671875 31.453125 -6.671875 C 36.085938 -6.671875 39.765625 -7.578125 42.484375 -9.390625 C 45.210938 -11.203125 46.578125 -13.738281 46.578125 -17 C 46.578125 -20.0625 45.257812 -22.515625 42.625 -24.359375 C 40 -26.210938 35.710938 -27.828125 29.765625 -29.203125 C 21.691406 -31.140625 15.773438 -33.625 12.015625 -36.65625 C 8.265625 -39.695312 6.390625 -43.753906 6.390625 -48.828125 C 6.390625 -54.398438 8.5 -58.8125 12.71875 -62.0625 C 16.945312 -65.320312 22.660156 -66.953125 29.859375 -66.953125 C 37.242188 -66.953125 43.082031 -65.101562 47.375 -61.40625 C 51.664062 -57.71875 53.84375 -52.679688 53.90625 -46.296875 L 45.734375 -46.296875 C 45.671875 -50.242188 44.210938 -53.359375 41.359375 -55.640625 C 38.515625 -57.921875 34.679688 -59.0625 29.859375 -59.0625 C 25.160156 -59.0625 21.484375 -58.140625 18.828125 -56.296875 C 16.171875 -54.453125 14.84375 -51.960938 14.84375 -48.828125 C 14.84375 -46.140625 16.078125 -43.867188 18.546875 -42.015625 C 21.015625 -40.171875 25.441406 -38.46875 31.828125 -36.90625 C 40.222656 -34.84375 46.203125 -32.257812 49.765625 -29.15625 C 53.335938 -26.0625 55.125 -22.101562 55.125 -17.28125 C 55.125 -11.582031 52.976562 -7.070312 48.6875 -3.75 C 44.394531 -0.4375 38.648438 1.21875 31.453125 1.21875 Z M 31.453125 1.21875 "/></g></g></g><g fill="#07bacf" fill-opacity="1"><g transform="translate(473.915431, 720.2043)"><g><path d="M 9.578125 0 L 9.578125 -65.734375 L 49.484375 -65.734375 L 49.484375 -58.03125 L 17.84375 -58.03125 L 17.84375 -37.28125 L 47.140625 -37.28125 L 47.140625 -29.671875 L 17.84375 -29.671875 L 17.84375 -7.703125 L 50.515625 -7.703125 L 50.515625 0 Z M 9.578125 0 "/></g></g></g><g fill="#07bacf" fill-opacity="1"><g transform="translate(534.295247, 720.2043)"><g><path d="M 9.578125 0 L 9.578125 -65.734375 L 34.65625 -65.734375 C 39.21875 -65.734375 43.1875 -64.867188 46.5625 -63.140625 C 49.945312 -61.421875 52.578125 -58.992188 54.453125 -55.859375 C 56.335938 -52.734375 57.28125 -48.984375 57.28125 -44.609375 C 57.28125 -39.285156 55.898438 -34.882812 53.140625 -31.40625 C 50.390625 -27.9375 46.601562 -25.609375 41.78125 -24.421875 L 58.3125 0 L 48.359375 0 L 32.296875 -23.578125 L 17.84375 -23.578125 L 17.84375 0 Z M 17.84375 -31.453125 L 33.71875 -31.453125 C 38.53125 -31.453125 42.25 -32.59375 44.875 -34.875 C 47.507812 -37.164062 48.828125 -40.410156 48.828125 -44.609375 C 48.828125 -48.796875 47.507812 -52.046875 44.875 -54.359375 C 42.25 -56.679688 38.53125 -57.84375 33.71875 -57.84375 L 17.84375 -57.84375 Z M 17.84375 -31.453125 "/></g></g></g><g fill="#07bacf" fill-opacity="1"><g transform="translate(601.999475, 720.2043)"><g><path d="M 27.796875 0 L 1.59375 -65.734375 L 10.421875 -65.734375 L 21.3125 -38.03125 L 31.640625 -11.921875 L 41.875 -38.03125 L 52.875 -65.734375 L 61.609375 -65.734375 L 35.5 0 Z M 27.796875 0 "/></g></g></g><g fill="#07bacf" fill-opacity="1"><g transform="translate(668.952461, 720.2043)"><g><path d="M 9.578125 0 L 9.578125 -65.734375 L 49.484375 -65.734375 L 49.484375 -58.03125 L 17.84375 -58.03125 L 17.84375 -37.28125 L 47.140625 -37.28125 L 47.140625 -29.671875 L 17.84375 -29.671875 L 17.84375 -7.703125 L 50.515625 -7.703125 L 50.515625 0 Z M 9.578125 0 "/></g></g></g></svg>