<svg xmlns="http://www.w3.org/2000/svg" xmlns:xlink="http://www.w3.org/1999/xlink" width="500" zoomAndPan="magnify" viewBox="0 0 375 374.999991" height="500" preserveAspectRatio="xMidYMid meet" version="1.0"><defs><g/><clipPath id="f1a449ba53"><path d="M 89.148438 73.964844 L 285.648438 73.964844 L 285.648438 245.714844 L 89.148438 245.714844 Z M 89.148438 73.964844 " clip-rule="nonzero"/></clipPath><clipPath id="6a312693cf"><path d="M 187.496094 73.964844 L 285.847656 246.078125 L 89.148438 246.078125 Z M 187.496094 73.964844 " clip-rule="nonzero"/></clipPath><clipPath id="6430700b77"><path d="M 68.828125 225 L 306.171875 225 L 306.171875 255.914062 L 68.828125 255.914062 Z M 68.828125 225 " clip-rule="nonzero"/></clipPath><clipPath id="f2f343be4d"><path d="M 196 144 L 325.949219 144 L 325.949219 210 L 196 210 Z M 196 144 " clip-rule="nonzero"/></clipPath><clipPath id="a0505b001d"><path d="M 49.199219 145 L 180 145 L 180 210 L 49.199219 210 Z M 49.199219 145 " clip-rule="nonzero"/></clipPath><clipPath id="d737872201"><path d="M 183 107.007812 L 192 107.007812 L 192 151 L 183 151 Z M 183 107.007812 " clip-rule="nonzero"/></clipPath><clipPath id="11eacb7fe7"><path d="M 188 205 L 192 205 L 192 212.757812 L 188 212.757812 Z M 188 205 " clip-rule="nonzero"/></clipPath><clipPath id="679940972f"><path d="M 183 205 L 187 205 L 187 212.757812 L 183 212.757812 Z M 183 205 " clip-rule="nonzero"/></clipPath></defs><g clip-path="url(#f1a449ba53)"><g clip-path="url(#6a312693cf)"><path stroke-linecap="butt" transform="matrix(0.75, 0, 0, 0.75, 89.147048, 73.966195)" fill="none" stroke-linejoin="miter" d="M 131.132069 -0.00180186 L 262.267495 229.482588 L 0.00185234 229.482588 Z M 131.132069 -0.00180186 " stroke="#07bacf" stroke-width="20" stroke-opacity="1" stroke-miterlimit="4"/></g></g><g clip-path="url(#6430700b77)"><path fill="#ffffff" d="M 68.828125 225 L 306.132812 225 L 306.132812 255.917969 L 68.828125 255.917969 Z M 68.828125 225 " fill-opacity="1" fill-rule="nonzero"/></g><g clip-path="url(#f2f343be4d)"><path fill="#8b3dff" d="M 325.601562 145.238281 C 325.597656 145.109375 325.5625 144.972656 325.539062 144.84375 C 324.410156 156.183594 319.242188 162.425781 307.835938 164.386719 C 295.394531 167.058594 282.9375 169.679688 270.441406 172.085938 C 254.175781 175.210938 237.863281 178.132812 221.453125 180.375 C 216.914062 180.976562 212.371094 181.519531 207.835938 182.125 C 206.015625 182.359375 204.199219 182.613281 202.371094 182.828125 C 201.949219 182.878906 201.765625 183.066406 201.652344 183.460938 C 201.292969 184.761719 200.90625 186.058594 200.53125 187.351562 C 200.445312 187.632812 200.511719 187.726562 200.78125 187.671875 C 203.5 187.144531 206.195312 186.503906 208.925781 186.042969 C 209.007812 186.050781 209.042969 186.21875 209.015625 186.269531 C 205.238281 189.425781 202.3125 193.394531 199.328125 197.273438 C 198.445312 198.445312 197.25 199.273438 196.109375 200.167969 C 196.445312 200.332031 196.714844 200.085938 197.007812 200.007812 C 197.226562 199.953125 197.429688 199.839844 197.636719 199.757812 C 201.589844 198.109375 205.566406 196.503906 209.703125 195.363281 C 213.582031 194.113281 217.71875 193.476562 221.34375 191.554688 C 221.828125 191.289062 222.269531 190.984375 222.605469 190.527344 C 223.066406 189.910156 223.753906 189.605469 224.425781 189.289062 C 224.652344 189.183594 224.792969 189.292969 224.789062 189.546875 C 224.773438 191.160156 224.753906 192.765625 224.734375 194.378906 C 225.117188 196.316406 221.632812 195.140625 220.210938 199.742188 C 218.75 204.148438 221.695312 209.949219 226.761719 209.539062 C 233.679688 209.6875 235.65625 198.660156 229.789062 195.722656 C 229.339844 195.507812 229.222656 195.183594 229.226562 194.714844 C 229.246094 193.234375 229.230469 191.75 229.230469 190.265625 C 229.089844 189.144531 229.777344 189.222656 230.625 189 C 236.933594 187.402344 243.226562 185.761719 249.511719 184.082031 C 250.457031 183.664062 250.1875 185.652344 250.433594 186.207031 C 250.582031 186.515625 250.996094 189.753906 251.386719 189.222656 C 252.007812 188.476562 253.453125 187.992188 253.195312 186.839844 C 252.964844 185.804688 252.789062 184.753906 252.59375 183.710938 C 252.527344 183.339844 252.558594 183.273438 252.945312 183.179688 C 260.570312 181.28125 268.160156 179.234375 275.773438 177.277344 C 276.492188 177.089844 277.207031 176.902344 277.925781 176.722656 C 278.1875 176.65625 278.269531 176.714844 278.320312 176.980469 C 278.53125 178.414062 278.6875 179.855469 278.898438 181.292969 C 279.3125 184.578125 279.398438 183.039062 280.816406 181.265625 C 281.144531 179.949219 280.59375 178.511719 280.585938 177.15625 C 280.496094 175.988281 280.398438 176.101562 281.542969 175.800781 C 293.066406 172.78125 304.679688 170.035156 316.125 166.746094 C 325.589844 163.414062 326.113281 153.589844 325.601562 145.238281 Z M 325.601562 145.238281 " fill-opacity="1" fill-rule="nonzero"/></g><g clip-path="url(#a0505b001d)"><path fill="#8b3dff" d="M 179.101562 200.046875 C 175.882812 197.8125 173.878906 194.378906 171.375 191.449219 C 169.789062 189.542969 168.011719 187.789062 166.03125 186.289062 C 165.964844 186.234375 165.953125 186.117188 165.914062 186.035156 C 168.671875 186.285156 171.453125 187.191406 174.21875 187.652344 C 174.496094 187.707031 174.578125 187.617188 174.515625 187.359375 C 174.332031 186.574219 174.136719 185.796875 173.964844 185.007812 C 173.84375 184.472656 173.761719 183.929688 173.664062 183.390625 C 173.601562 182.835938 173.125 182.761719 172.652344 182.71875 C 168.707031 182.316406 164.765625 181.886719 160.832031 181.394531 C 151.105469 180.238281 141.421875 178.730469 131.753906 177.136719 C 109.609375 173.433594 87.574219 169.078125 65.648438 164.234375 C 58.0625 162.902344 51.347656 157.148438 50.179688 149.332031 C 49.890625 148.144531 49.941406 146.808594 49.476562 145.699219 C 48.46875 155.613281 50.769531 165.34375 61.8125 167.703125 C 72.296875 170.515625 82.800781 173.21875 93.320312 175.898438 C 94.804688 176.289062 94.675781 175.980469 94.523438 177.71875 C 94.449219 178.550781 94.363281 179.386719 94.28125 180.21875 C 94.054688 181.515625 95.089844 182.453125 95.8125 183.398438 C 95.863281 183.339844 95.953125 183.28125 95.964844 183.210938 C 96.296875 181.207031 96.574219 179.195312 96.839844 177.1875 C 96.886719 176.871094 97.003906 176.800781 97.308594 176.878906 C 98.429688 177.167969 99.546875 177.472656 100.671875 177.765625 C 107.835938 179.640625 115.019531 181.453125 122.183594 183.332031 C 122.589844 183.472656 122.660156 183.5625 122.605469 183.957031 C 122.4375 185.070312 122.25 186.183594 122.097656 187.300781 C 122.019531 188.230469 123.40625 188.75 123.964844 189.367188 C 124.175781 189.539062 124.300781 189.472656 124.339844 189.210938 C 124.589844 187.71875 124.859375 186.230469 125.089844 184.730469 C 125.179688 184.117188 125.332031 184.09375 125.847656 184.234375 C 128.148438 184.855469 130.4375 185.519531 132.742188 186.121094 C 136.976562 187.238281 141.21875 188.324219 145.460938 189.425781 C 145.746094 189.46875 145.996094 189.644531 146.101562 189.90625 C 146.226562 191.566406 146.136719 193.261719 146.210938 194.929688 C 146.226562 195.375 146.097656 195.625 145.65625 195.800781 C 142.457031 197.054688 141.496094 200.914062 142.230469 203.996094 C 144.484375 213.382812 157.011719 210.101562 155.375 200.839844 C 155.011719 198.457031 153.523438 196.5 151.253906 195.664062 C 150.851562 195.53125 150.691406 195.292969 150.699219 194.878906 C 150.71875 194.039062 150.703125 193.199219 150.703125 192.363281 C 150.703125 192.363281 150.707031 192.363281 150.707031 192.363281 C 150.707031 191.457031 150.703125 190.554688 150.714844 189.652344 C 150.71875 189.277344 150.859375 189.195312 151.203125 189.367188 C 152.113281 189.960938 153.441406 190.164062 153.964844 191.191406 C 154.234375 191.78125 154.703125 192.164062 155.285156 192.40625 C 157.675781 193.464844 160.238281 194.023438 162.746094 194.738281 C 168.453125 196.105469 173.863281 198.421875 179.363281 200.371094 C 179.277344 200.265625 179.214844 200.121094 179.101562 200.046875 Z M 179.101562 200.046875 " fill-opacity="1" fill-rule="nonzero"/></g><path fill="#8b3dff" d="M 200.613281 177.804688 C 200.628906 177.574219 200.515625 177.472656 200.28125 177.421875 C 195.90625 176.234375 193.054688 175.816406 188.578125 176.980469 C 186.167969 177.515625 183.886719 175.875 181.441406 176.191406 C 179.175781 176.292969 177 176.972656 174.769531 177.289062 C 174.445312 177.398438 174.507812 177.835938 174.535156 178.113281 C 174.628906 185.691406 180.742188 202.269531 190.648438 197.941406 C 196.730469 194.527344 199.441406 187.171875 200.371094 180.597656 C 200.492188 179.671875 200.535156 178.734375 200.613281 177.804688 Z M 200.613281 177.804688 " fill-opacity="1" fill-rule="nonzero"/><path fill="#8b3dff" d="M 174.582031 175.234375 C 175.292969 174.335938 175.574219 173.074219 175.933594 171.980469 C 176.140625 171.175781 176.578125 170.703125 177.414062 170.546875 C 180.132812 169.941406 182.921875 169.238281 185.710938 169.976562 C 187.125 170.445312 188.675781 170.175781 190.101562 169.867188 C 192.589844 169.394531 195.238281 169.792969 197.589844 170.679688 C 199.238281 171.371094 199.480469 173.355469 200.226562 174.789062 C 200.308594 174.910156 200.398438 175.199219 200.578125 175.074219 C 199.316406 149.839844 176.113281 149.488281 174.511719 174.886719 C 174.496094 175.011719 174.511719 175.128906 174.582031 175.234375 Z M 174.582031 175.234375 " fill-opacity="1" fill-rule="nonzero"/><path fill="#8b3dff" d="M 200.933594 157.613281 C 201.292969 158.101562 201.300781 158.105469 201.894531 157.945312 C 206.699219 156.609375 211.546875 155.421875 216.367188 154.140625 C 221.40625 152.8125 226.449219 151.476562 231.480469 150.113281 C 232.894531 149.816406 232.714844 149.773438 232.714844 148.324219 C 232.6875 147.140625 232.835938 147.144531 231.523438 147.316406 C 219.738281 149.046875 207.9375 150.789062 196.191406 152.722656 C 196.589844 153.140625 197.082031 153.4375 197.507812 153.820312 C 198.792969 154.960938 199.921875 156.234375 200.933594 157.613281 Z M 200.933594 157.613281 " fill-opacity="1" fill-rule="nonzero"/><path fill="#8b3dff" d="M 143.183594 149.890625 C 153.21875 152.585938 163.265625 155.257812 173.308594 157.917969 C 174.226562 158.300781 174.949219 156.375 175.65625 155.832031 C 176.628906 154.667969 177.859375 153.753906 179.035156 152.851562 C 167.402344 150.601562 155.390625 149.167969 143.621094 147.246094 C 142.472656 146.960938 142.675781 147.527344 142.644531 148.449219 C 142.640625 148.449219 142.636719 148.449219 142.625 148.449219 C 142.667969 149.023438 142.441406 149.757812 143.183594 149.890625 Z M 143.183594 149.890625 " fill-opacity="1" fill-rule="nonzero"/><g clip-path="url(#d737872201)"><path fill="#8b3dff" d="M 184.269531 150.445312 C 187.796875 149.171875 192.019531 151.222656 191.453125 150.09375 C 190.820312 147.8125 189.59375 145.636719 189.503906 143.25 C 189.542969 137.609375 189.40625 131.96875 189.355469 126.324219 C 189.359375 126.324219 189.367188 126.324219 189.375 126.324219 C 189.179688 121.265625 189.109375 116.207031 188.980469 111.148438 C 188.816406 109.8125 189.492188 107.222656 187.609375 107.011719 C 186.535156 107.046875 186.355469 108.429688 186.386719 109.308594 C 186.324219 112.175781 186.253906 115.046875 186.195312 117.910156 C 186 125.90625 185.914062 133.902344 185.894531 141.894531 C 185.941406 143.539062 185.519531 145.074219 184.972656 146.605469 C 184.628906 147.78125 184.277344 148.949219 183.941406 150.125 C 183.847656 150.453125 183.941406 150.539062 184.269531 150.445312 Z M 184.269531 150.445312 " fill-opacity="1" fill-rule="nonzero"/></g><path fill="#8b3dff" d="M 190.019531 171.058594 C 183.644531 172.355469 184.792969 168.332031 183.863281 174.738281 C 183.820312 175.410156 186.683594 175.847656 187.507812 175.902344 C 188.535156 175.679688 189.792969 175.417969 191.046875 175.148438 C 191.273438 175.097656 191.347656 174.921875 191.300781 174.703125 C 191.054688 173.609375 190.816406 172.511719 190.5625 171.414062 C 190.480469 171.039062 190.402344 171.003906 190.019531 171.058594 Z M 190.019531 171.058594 " fill-opacity="1" fill-rule="nonzero"/><g clip-path="url(#11eacb7fe7)"><path fill="#8b3dff" d="M 191.460938 209.011719 C 191.4375 209.011719 191.414062 209.011719 191.394531 209.011719 C 191.285156 207.273438 192.070312 204.5 189.238281 205.539062 C 188.742188 205.746094 188.671875 206.207031 188.6875 206.679688 C 188.738281 208.382812 188.777344 210.09375 188.863281 211.796875 C 188.902344 212.6875 189.386719 213.054688 190.273438 212.96875 C 192.109375 212.875 191.28125 210.246094 191.460938 209.011719 Z M 191.460938 209.011719 " fill-opacity="1" fill-rule="nonzero"/></g><g clip-path="url(#679940972f)"><path fill="#8b3dff" d="M 186.320312 209.257812 C 186.308594 209.257812 186.304688 209.257812 186.296875 209.257812 C 186.296875 208.328125 186.308594 207.398438 186.289062 206.460938 C 186.277344 205.863281 186.023438 205.582031 185.457031 205.457031 C 184.640625 205.242188 183.6875 205.632812 183.773438 206.578125 C 183.886719 208.433594 183.730469 210.316406 183.972656 212.15625 C 184.0625 213.121094 185.605469 213.324219 186.097656 212.582031 C 186.535156 211.558594 186.238281 210.347656 186.320312 209.257812 Z M 186.320312 209.257812 " fill-opacity="1" fill-rule="nonzero"/></g><path fill="#8b3dff" d="M 179.359375 175.230469 C 182.734375 174.757812 182.476562 176.007812 182.886719 172.484375 C 182.9375 171.925781 183.296875 171.40625 183.078125 170.816406 C 182.441406 170.953125 181.15625 170.566406 180.832031 171.214844 C 180.328125 172.46875 179.824219 173.71875 179.324219 174.972656 C 179.273438 175.109375 179.292969 175.21875 179.359375 175.230469 Z M 179.359375 175.230469 " fill-opacity="1" fill-rule="nonzero"/><path fill="#8b3dff" d="M 193.382812 170.878906 C 192.878906 170.902344 191.621094 170.28125 191.796875 171.230469 C 192.03125 172.488281 192.253906 173.75 192.582031 174.984375 C 193.050781 175.027344 193.523438 175.074219 193.996094 175.113281 C 193.996094 175.089844 194 175.066406 194 175.039062 C 194.292969 174.960938 195.453125 175.265625 195.335938 174.777344 C 194.921875 173.667969 194.496094 172.558594 194.085938 171.441406 C 193.957031 171.109375 193.734375 170.925781 193.382812 170.878906 Z M 193.382812 170.878906 " fill-opacity="1" fill-rule="nonzero"/><path fill="#8b3dff" d="M 179.589844 171.132812 C 178.722656 171.304688 177.476562 171.1875 177.035156 172.113281 C 176.804688 172.980469 175.265625 175.421875 175.789062 176.066406 C 176.765625 175.859375 177.808594 175.933594 178.15625 174.839844 C 178.515625 173.980469 178.914062 173.132812 179.246094 172.261719 C 179.378906 171.898438 179.707031 171.582031 179.589844 171.132812 Z M 179.589844 171.132812 " fill-opacity="1" fill-rule="nonzero"/><path fill="#8b3dff" d="M 196.453125 174.671875 C 196.59375 175.0625 196.867188 175.296875 197.273438 175.417969 C 197.710938 175.449219 199.480469 176.542969 199.441406 175.707031 C 198.980469 174.585938 198.320312 173.535156 197.796875 172.433594 C 197.363281 171.585938 196.617188 171.292969 195.734375 171.234375 C 195.351562 171.210938 195.261719 171.300781 195.386719 171.671875 C 195.726562 172.675781 196.097656 173.671875 196.453125 174.671875 Z M 196.453125 174.671875 " fill-opacity="1" fill-rule="nonzero"/><g fill="#07bacf" fill-opacity="1"><g transform="translate(39.305741, 265.6588)"><g><path d="M 14.546875 0.5625 C 12.109375 0.5625 10 0.148438 8.21875 -0.671875 C 6.445312 -1.492188 5.070312 -2.648438 4.09375 -4.140625 C 3.125 -5.628906 2.628906 -7.359375 2.609375 -9.328125 L 6.421875 -9.328125 C 6.484375 -7.390625 7.257812 -5.863281 8.75 -4.75 C 10.238281 -3.632812 12.171875 -3.078125 14.546875 -3.078125 C 16.679688 -3.078125 18.378906 -3.492188 19.640625 -4.328125 C 20.898438 -5.171875 21.53125 -6.347656 21.53125 -7.859375 C 21.53125 -9.273438 20.921875 -10.410156 19.703125 -11.265625 C 18.492188 -12.117188 16.515625 -12.863281 13.765625 -13.5 C 10.023438 -14.394531 7.285156 -15.546875 5.546875 -16.953125 C 3.816406 -18.359375 2.953125 -20.234375 2.953125 -22.578125 C 2.953125 -25.148438 3.925781 -27.1875 5.875 -28.6875 C 7.832031 -30.195312 10.472656 -30.953125 13.796875 -30.953125 C 17.210938 -30.953125 19.910156 -30.097656 21.890625 -28.390625 C 23.878906 -26.679688 24.890625 -24.351562 24.921875 -21.40625 L 21.140625 -21.40625 C 21.109375 -23.226562 20.429688 -24.664062 19.109375 -25.71875 C 17.796875 -26.769531 16.023438 -27.296875 13.796875 -27.296875 C 11.628906 -27.296875 9.929688 -26.867188 8.703125 -26.015625 C 7.472656 -25.160156 6.859375 -24.015625 6.859375 -22.578125 C 6.859375 -21.328125 7.425781 -20.273438 8.5625 -19.421875 C 9.707031 -18.566406 11.757812 -17.78125 14.71875 -17.0625 C 18.59375 -16.101562 21.351562 -14.90625 23 -13.46875 C 24.65625 -12.039062 25.484375 -10.210938 25.484375 -7.984375 C 25.484375 -5.347656 24.488281 -3.265625 22.5 -1.734375 C 20.519531 -0.203125 17.867188 0.5625 14.546875 0.5625 Z M 14.546875 0.5625 "/></g></g></g><g fill="#07bacf" fill-opacity="1"><g transform="translate(69.126015, 265.6588)"><g><path d="M 4.421875 0 L 4.421875 -30.390625 L 8.25 -30.390625 L 8.25 -17.3125 L 12.59375 -17.3125 C 14.644531 -17.3125 16.191406 -17.679688 17.234375 -18.421875 C 18.273438 -19.160156 19.097656 -20.351562 19.703125 -22 L 22.828125 -30.390625 L 26.875 -30.390625 L 23.140625 -20.484375 C 22.703125 -19.328125 22.171875 -18.320312 21.546875 -17.46875 C 20.929688 -16.613281 20.1875 -15.898438 19.3125 -15.328125 L 28.046875 0 L 23.609375 0 L 15.75 -13.9375 C 14.800781 -13.757812 13.75 -13.671875 12.59375 -13.671875 L 8.25 -13.671875 L 8.25 0 Z M 4.421875 0 "/></g></g></g><g fill="#07bacf" fill-opacity="1"><g transform="translate(100.552318, 265.6588)"><g><path d="M 12.15625 0 L 12.15625 -10.9375 L 0.734375 -30.390625 L 5.171875 -30.390625 L 10.109375 -21.875 L 14.0625 -15.015625 L 23 -30.390625 L 27.296875 -30.390625 L 15.890625 -10.9375 L 15.890625 0 Z M 12.15625 0 "/></g></g></g><g fill="#07bacf" fill-opacity="1"><g transform="translate(130.329185, 265.6588)"><g><path d="M 4.421875 0 L 4.421875 -30.390625 L 16.015625 -30.390625 C 18.128906 -30.390625 19.96875 -29.988281 21.53125 -29.1875 C 23.09375 -28.394531 24.304688 -27.273438 25.171875 -25.828125 C 26.046875 -24.378906 26.484375 -22.644531 26.484375 -20.625 C 26.484375 -18.15625 25.84375 -16.117188 24.5625 -14.515625 C 23.289062 -12.910156 21.539062 -11.832031 19.3125 -11.28125 L 26.953125 0 L 22.359375 0 L 14.9375 -10.890625 L 8.25 -10.890625 L 8.25 0 Z M 8.25 -14.546875 L 15.578125 -14.546875 C 17.804688 -14.546875 19.53125 -15.070312 20.75 -16.125 C 21.96875 -17.175781 22.578125 -18.675781 22.578125 -20.625 C 22.578125 -22.5625 21.96875 -24.0625 20.75 -25.125 C 19.53125 -26.195312 17.804688 -26.734375 15.578125 -26.734375 L 8.25 -26.734375 Z M 8.25 -14.546875 "/></g></g></g><g fill="#07bacf" fill-opacity="1"><g transform="translate(161.625279, 265.6588)"><g><path d="M 4.421875 0 L 4.421875 -30.390625 L 22.875 -30.390625 L 22.875 -26.828125 L 8.25 -26.828125 L 8.25 -17.234375 L 21.796875 -17.234375 L 21.796875 -13.71875 L 8.25 -13.71875 L 8.25 -3.5625 L 23.359375 -3.5625 L 23.359375 0 Z M 4.421875 0 "/></g></g></g><g fill="#07bacf" fill-opacity="1"><g transform="translate(189.535688, 265.6588)"><g><path d="M 14.546875 0.5625 C 12.109375 0.5625 10 0.148438 8.21875 -0.671875 C 6.445312 -1.492188 5.070312 -2.648438 4.09375 -4.140625 C 3.125 -5.628906 2.628906 -7.359375 2.609375 -9.328125 L 6.421875 -9.328125 C 6.484375 -7.390625 7.257812 -5.863281 8.75 -4.75 C 10.238281 -3.632812 12.171875 -3.078125 14.546875 -3.078125 C 16.679688 -3.078125 18.378906 -3.492188 19.640625 -4.328125 C 20.898438 -5.171875 21.53125 -6.347656 21.53125 -7.859375 C 21.53125 -9.273438 20.921875 -10.410156 19.703125 -11.265625 C 18.492188 -12.117188 16.515625 -12.863281 13.765625 -13.5 C 10.023438 -14.394531 7.285156 -15.546875 5.546875 -16.953125 C 3.816406 -18.359375 2.953125 -20.234375 2.953125 -22.578125 C 2.953125 -25.148438 3.925781 -27.1875 5.875 -28.6875 C 7.832031 -30.195312 10.472656 -30.953125 13.796875 -30.953125 C 17.210938 -30.953125 19.910156 -30.097656 21.890625 -28.390625 C 23.878906 -26.679688 24.890625 -24.351562 24.921875 -21.40625 L 21.140625 -21.40625 C 21.109375 -23.226562 20.429688 -24.664062 19.109375 -25.71875 C 17.796875 -26.769531 16.023438 -27.296875 13.796875 -27.296875 C 11.628906 -27.296875 9.929688 -26.867188 8.703125 -26.015625 C 7.472656 -25.160156 6.859375 -24.015625 6.859375 -22.578125 C 6.859375 -21.328125 7.425781 -20.273438 8.5625 -19.421875 C 9.707031 -18.566406 11.757812 -17.78125 14.71875 -17.0625 C 18.59375 -16.101562 21.351562 -14.90625 23 -13.46875 C 24.65625 -12.039062 25.484375 -10.210938 25.484375 -7.984375 C 25.484375 -5.347656 24.488281 -3.265625 22.5 -1.734375 C 20.519531 -0.203125 17.867188 0.5625 14.546875 0.5625 Z M 14.546875 0.5625 "/></g></g></g><g fill="#07bacf" fill-opacity="1"><g transform="translate(219.355968, 265.6588)"><g><path d="M 4.421875 0 L 4.421875 -30.390625 L 22.875 -30.390625 L 22.875 -26.828125 L 8.25 -26.828125 L 8.25 -17.234375 L 21.796875 -17.234375 L 21.796875 -13.71875 L 8.25 -13.71875 L 8.25 -3.5625 L 23.359375 -3.5625 L 23.359375 0 Z M 4.421875 0 "/></g></g></g><g fill="#07bacf" fill-opacity="1"><g transform="translate(247.266367, 265.6588)"><g><path d="M 4.421875 0 L 4.421875 -30.390625 L 16.015625 -30.390625 C 18.128906 -30.390625 19.96875 -29.988281 21.53125 -29.1875 C 23.09375 -28.394531 24.304688 -27.273438 25.171875 -25.828125 C 26.046875 -24.378906 26.484375 -22.644531 26.484375 -20.625 C 26.484375 -18.15625 25.84375 -16.117188 24.5625 -14.515625 C 23.289062 -12.910156 21.539062 -11.832031 19.3125 -11.28125 L 26.953125 0 L 22.359375 0 L 14.9375 -10.890625 L 8.25 -10.890625 L 8.25 0 Z M 8.25 -14.546875 L 15.578125 -14.546875 C 17.804688 -14.546875 19.53125 -15.070312 20.75 -16.125 C 21.96875 -17.175781 22.578125 -18.675781 22.578125 -20.625 C 22.578125 -22.5625 21.96875 -24.0625 20.75 -25.125 C 19.53125 -26.195312 17.804688 -26.734375 15.578125 -26.734375 L 8.25 -26.734375 Z M 8.25 -14.546875 "/></g></g></g><g fill="#07bacf" fill-opacity="1"><g transform="translate(278.562454, 265.6588)"><g><path d="M 12.84375 0 L 0.734375 -30.390625 L 4.8125 -30.390625 L 9.859375 -17.578125 L 14.625 -5.515625 L 19.359375 -17.578125 L 24.4375 -30.390625 L 28.46875 -30.390625 L 16.40625 0 Z M 12.84375 0 "/></g></g></g><g fill="#07bacf" fill-opacity="1"><g transform="translate(309.511281, 265.6588)"><g><path d="M 4.421875 0 L 4.421875 -30.390625 L 22.875 -30.390625 L 22.875 -26.828125 L 8.25 -26.828125 L 8.25 -17.234375 L 21.796875 -17.234375 L 21.796875 -13.71875 L 8.25 -13.71875 L 8.25 -3.5625 L 23.359375 -3.5625 L 23.359375 0 Z M 4.421875 0 "/></g></g></g></svg>